<svg xmlns="http://www.w3.org/2000/svg" xmlns:xlink="http://www.w3.org/1999/xlink" width="40" height="40" viewBox="0 0 40 40">
    <defs>
        <path id="dhgnrnowja" d="M0.086 0.129L33.268 0.129 33.268 33.06 0.086 33.06z"/>
        <path id="uadb9in5vc" d="M0 0.156L33.123 0.156 33.123 16.925 0 16.925z"/>
        <path id="ohic5k8xhe" d="M0.154 0.168L31.426 0.168 31.426 11.776 0.154 11.776z"/>
    </defs>
    <g fill="none" fill-rule="evenodd">
        <g transform="translate(3.333 3.333) translate(0 .056)">
            <mask id="qddmy3sfjb" fill="#fff">
                <use xlink:href="#dhgnrnowja"/>
            </mask>
            <path fill="#FCFDFD" d="M33.268 16.594c0 9.094-7.428 16.466-16.591 16.466S.087 25.688.087 16.594C.086 7.501 7.513.13 16.676.13s16.59 7.372 16.59 16.465" mask="url(#qddmy3sfjb)"/>
        </g>
        <path fill="#1782C5" d="M2.954 19.262c.204-.245.373-.475.33-.808.062-.061.122-.123.183-.185.317.014.489-.216.687-.405 3.196-3.042 7.107-4.46 11.414-4.717 3.91-.235 7.617.64 10.993 2.741.588.366 1.047.949 1.77 1.096.39.317.487 1.132 1.286.757l.36.528c-.285.869.496 1.063.933 1.475.214.353.516.66.566 1.099-.014.246.112.364.348.383l.199.907.17.181v.002l.058.02c.657-1.772 1.017-3.687 1.017-5.686 0-9.094-7.428-16.466-16.59-16.466C7.513.184.085 7.556.085 16.65c0 2.1.399 4.108 1.121 5.955l.05-.081c.371-1.19.894-2.301 1.697-3.262" transform="translate(3.333 3.333)"/>
        <g transform="translate(3.333 3.333) translate(0 .056)">
            <mask id="cvpyoedngd" fill="#fff">
                <use xlink:href="#uadb9in5vc"/>
            </mask>
            <path fill="#1782C5" d="M0 16.925C-.063 9.049 5.281 2.209 13.057.547 22.53-1.48 31.389 4.572 33.054 14.159c.072.42.048.855.07 1.283-.069.276.117.61-.188.86-.383-.274-.463-.717-.664-1.078-1.186-2.134-2.682-4.002-4.651-5.466-3.983-2.96-8.42-4.187-13.362-3.519-4.498.61-8.2 2.697-11.182 6.068-.46.52-1.073 1.036-1.081 1.856-.373.018-.37.285-.369.553-.639.448-.987 1.041-.922 1.842-.004.15-.035.288-.183.367H0" mask="url(#cvpyoedngd)"/>
        </g>
        <path fill="#1393D1" d="M.522 16.981c.148-.079.18-.217.183-.367.432-.552.734-1.17.922-1.843.247-.102.37-.286.369-.552.26-.123.413-.343.572-.576.939-1.38 2.138-2.512 3.489-3.472 4.268-3.036 8.979-4.145 14.142-3.126 4.278.844 7.73 3.032 10.465 6.426 1.05 1.303 1.677 2.823 2.478 4.254l-.052.906c-.306-.153-.391-.458-.504-.74-1.073-2.679-2.8-4.883-5.111-6.562-4.818-3.5-10.14-4.495-15.892-2.844C6.63 9.908 3.057 12.983.842 17.636c-.193.404-.196.916-.65 1.175l-.097-.88c.323-.235.336-.61.427-.95" transform="translate(3.333 3.333)"/>
        <path fill="#149FDA" d="M.192 18.811c.454-.26.457-.77.65-1.175 2.215-4.653 5.787-7.728 10.741-9.15 5.753-1.652 11.074-.657 15.892 2.843 2.31 1.679 4.038 3.883 5.111 6.562.113.282.198.587.504.74.072.389-.086.74-.18 1.103-.165-.29-.37-.566-.489-.874-1.386-3.595-3.895-6.18-7.25-7.959-3.677-1.949-7.559-2.657-11.696-1.858-4.93.952-8.847 3.357-11.554 7.663-.643 1.023-.954 2.177-1.547 3.207l-.182-1.102" transform="translate(3.333 3.333)"/>
        <path fill="#10AFE5" d="M.374 19.914c.593-1.03.904-2.185 1.546-3.208 2.708-4.306 6.626-6.71 11.555-7.663 4.137-.799 8.02-.09 11.695 1.858 3.357 1.78 5.865 4.364 7.251 7.959.12.308.324.583.49.873.066.333-.107.616-.188.918-.587-.984-.91-2.079-1.531-3.078-2.261-3.635-5.461-5.938-9.463-7.206-2.41-.763-4.88-.916-7.405-.585-3.468.454-6.507 1.81-9.118 4.098-2.116 1.855-3.774 4.056-4.659 6.774l-.173-.74" transform="translate(3.333 3.333)"/>
        <path fill="#27BEEF" d="M.547 20.654c.885-2.718 2.543-4.918 4.66-6.774 2.61-2.288 5.65-3.644 9.117-4.098 2.526-.331 4.995-.178 7.405.585 4.002 1.268 7.202 3.571 9.463 7.206.621 1 .944 2.094 1.531 3.078l-.179.729c-.45-.45-.504-1.076-.722-1.629-.113-.505-.265-.988-.73-1.294h-.001c-.237-.923-.873-1.618-1.476-2.278-3.455-3.777-7.873-5.495-12.894-5.597-1.953-.04-3.909.321-5.824.973-3.67 1.249-6.645 3.314-8.697 6.622-.363.585-.914 1.133-.77 1.936-.067.326-.12.659-.359.918l-.33.353c-.068-.243-.117-.353-.194-.73" transform="translate(3.333 3.333)"/>
        <path fill="#1782C5" d="M31.823 22.608l.057.113c.046.022.104.026.187-.005.182-.068.194-.243.195-.4l-.184-.052-.255.344zM31.485 24.082l-.06.114c-.968 1.738-2.093 3.211-3.368 4.435 1.39-1.302 2.555-2.84 3.428-4.55M1.634 23.6c-.01.173.074.385.234.668 3.246 5.751 8.21 8.629 14.792 8.937 4.585-.222 8.407-1.706 11.397-4.574-2.971 2.78-6.975 4.484-11.38 4.484-6.66 0-12.402-3.895-15.043-9.514M31.513 24.057l-.028.058c.01-.019.02-.039.028-.058" transform="translate(3.333 3.333)"/>
        <path fill="#1782C5" d="M31.424 24.196c.022-.04.042-.077.06-.114l.013-.025c.298-.604.107-.813-.587-1.039-3.275-1.066-6.618-1.743-10.05-2.022-6.297-.512-12.468.028-18.495 2.02-.497.163-.718.328-.731.585 2.64 5.62 8.383 9.515 15.043 9.515 4.405 0 8.409-1.705 11.38-4.485 1.275-1.224 2.4-2.697 3.367-4.435" transform="translate(3.333 3.333)"/>
        <path fill="#D2EDFA" d="M9.311 15.381c3.233-1.21 6.592-1.782 10.113-1.2 2.91.482 5.589 1.429 7.99 3.102 1.9 1.323 3.475 2.964 4.319 5.191.046.122.085.336.296.242.153-.068.162-.245.163-.402l-.17-.18-.198-.909c-.236-.017-.362-.136-.348-.382-.05-.438-.352-.746-.566-1.1-.437-.411-1.218-.605-.933-1.474l-.36-.528c-.799.376-.896-.44-1.287-.758-.722-.146-1.181-.729-1.77-1.095-3.375-2.1-7.081-2.975-10.992-2.741-4.306.257-8.218 1.675-11.414 4.717-.198.189-.37.42-.687.405l-.182.185c.042.333-.127.563-.331.808-.804.962-1.327 2.075-1.697 3.265l.13.199c.02-.018.049-.032.059-.054.544-1.193 1.182-2.293 2.055-3.316 1.597-1.873 3.605-3.15 5.81-3.975" transform="translate(3.333 3.333)"/>
        <path fill="#87D4F5" d="M32.023 22.133l-.198-.908c.006-.24-.11-.367-.35-.382-.048-.438-.35-.746-.565-1.1-.035-.665-.624-.981-.933-1.474l-.36-.528c-.136-.287-.218-.614-.552-.756-1.02-1.156-2.146-2.16-3.68-2.58l-.92-.371c-.152-.28-.358-.465-.685-.554-1.613-.438-3.17-1.006-4.853-1.277-1.912-.309-3.759-.206-5.579.149-2.248.437-4.494 1.023-6.418 2.387-.89.63-1.902 1.115-2.536 2.061-.508.365-1.025.723-.927 1.47l-.182.184c-.311-.027-.423.158-.61.395-.63.798-.837 1.85-1.585 2.566l-.019-.384c.24-.26.292-.592.359-.918.47-.741.89-1.52 1.416-2.218 2.963-3.925 7.059-5.887 11.821-6.398 3.501-.376 6.918.19 10.13 1.799 1.975.989 3.658 2.311 5.143 3.917.384.415.547 1.034 1.15 1.245h.001c.057.536.144 1.056.731 1.293.218.553.272 1.179.722 1.629-.007.303-.11.562-.354.754h-.167" transform="translate(3.333 3.333)"/>
        <g transform="translate(3.333 3.333) translate(1.842 5.949)">
            <mask id="g49k3gmbif" fill="#fff">
                <use xlink:href="#ohic5k8xhe"/>
            </mask>
            <path fill="#188ACA" d="M31.3 11.776c-.801-1.431-1.428-2.951-2.478-4.254-2.734-3.394-6.187-5.582-10.464-6.426-5.164-1.018-9.875.09-14.143 3.126-1.35.96-2.55 2.092-3.49 3.472-.157.233-.31.453-.571.576.008-.82.622-1.337 1.081-1.856C4.217 3.042 7.92.955 12.417.346c4.942-.669 9.38.559 13.362 3.519 1.97 1.464 3.465 3.332 4.651 5.466.201.36.281.804.664 1.078.306-.251.12-.584.188-.86.202.74.176 1.483.019 2.227" mask="url(#g49k3gmbif)"/>
        </g>
        <path fill="#B5E2F8" d="M1.09 21.415c.748-.716.955-1.768 1.585-2.566.187-.237.299-.422.61-.395.042.333-.127.563-.331.808-.804.962-1.362 2.195-1.733 3.385-.252-.555-.2-.391-.344-.853.15-.082.2-.22.213-.379" transform="translate(3.333 3.333)"/>
        <path fill="#188ACA" d="M.522 16.981c-.091.34-.104.715-.427.95-.095-.594-.091-.627-.095-.95h.522" transform="translate(3.333 3.333)"/>
        <path fill="#60CAF3" d="M1.18 21.415c-.017.159-.08.297-.268.38-.143-.282-.12-.185-.172-.41l.415-.354.024.384" transform="translate(3.333 3.333)"/>
        <path fill="#A2DCF8" d="M32.023 22.133c.132.002.265.003.398.002.011.143.013.286.006.43l-.404-.432" transform="translate(3.333 3.333)"/>
        <path fill="#188ACA" d="M1.627 14.771c-.188.674-.49 1.29-.922 1.843-.065-.801.283-1.394.922-1.843M2.065 14.219c.002.266-.145.45-.438.552-.002-.267-.005-.535.438-.552" transform="translate(3.333 3.333)"/>
        <path fill="#60CAF3" d="M31.091 18.458c-.604-.212-.767-.83-1.15-1.244-1.486-1.607-3.169-2.93-5.144-3.918-3.212-1.61-6.629-2.175-10.13-1.8-4.762.512-8.858 2.474-11.82 6.4-.527.697-.948 1.476-1.417 2.217-.144-.803.407-1.351.77-1.936 2.052-3.308 5.028-5.373 8.697-6.622 1.915-.652 3.87-1.012 5.824-.973 5.02.102 9.44 1.82 12.894 5.597.603.66 1.239 1.355 1.476 2.279M31.822 19.751c-.587-.237-.674-.757-.73-1.294.465.306.617.79.73 1.294" transform="translate(3.333 3.333)"/>
        <path fill="#B5E2F8" d="M3.467 18.27c-.098-.747.419-1.106.927-1.47.25.008.472-.04.674-.219 1.478-1.307 3.18-2.247 5.025-2.901 3.277-1.163 6.63-1.4 10.069-.821 1.485.25 2.833.92 4.303 1.175l.92.37c.017.39.396.4.607.588.76.686 1.944.876 2.342 1.987l-.004.005c-.722-.147-1.181-.73-1.77-1.096-3.375-2.1-7.081-2.975-10.992-2.741-4.307.258-8.218 1.674-11.414 4.717-.198.189-.37.419-.687.405" transform="translate(3.333 3.333)"/>
        <path fill="#B5E2F8" d="M29.065 16.985c.334.142.416.469.552.756-.799.375-.896-.44-1.287-.758l.004-.004.73.006M29.977 18.269c.309.493.898.81.933 1.475-.437-.412-1.218-.606-.933-1.475" transform="translate(3.333 3.333)"/>
        <path fill="#A2DCF8" d="M31.476 20.843c.3.018.446.163.437.438-.297-.02-.454-.156-.437-.438M24.465 14.034c-1.47-.256-2.818-.925-4.303-1.175-3.44-.579-6.792-.342-10.069.82-1.846.655-3.547 1.595-5.025 2.902-.202.179-.423.227-.674.22.634-.947 1.646-1.432 2.536-2.063 1.924-1.363 4.17-1.949 6.418-2.386 1.82-.355 3.667-.458 5.579-.15 1.683.272 3.24.84 4.853 1.278.327.089.533.275.685.554M29.065 16.985l-.73-.006c-.4-1.111-1.582-1.3-2.343-1.986-.21-.19-.59-.199-.608-.588 1.535.42 2.661 1.424 3.68 2.58" transform="translate(3.333 3.333)"/>
    </g>
</svg>
