<svg xmlns="http://www.w3.org/2000/svg" viewBox="0 0 36 36"><defs><style>.cls-1{fill:#fff;}.cls-2{fill:#58595b;}.cls-3{fill:#bb202e;}</style></defs><g id="Layer_2" data-name="Layer 2"><g id="Layer_1-2" data-name="Layer 1"><rect class="cls-1" width="36" height="36"/><polygon class="cls-2" points="5.77 15.07 3.75 19.7 2.83 19.7 0.89 15.07 1.91 15.07 3.34 18.61 4.76 15.07 5.77 15.07"/><path class="cls-2" d="M7.05,15.75H6.2v-.68h.85Zm0,3.95H6.2V16.3h.85Z"/><path class="cls-2" d="M9.47,16.3A1.38,1.38,0,0,1,11,17.88a3,3,0,0,1,0,.42H8.73c0,.48.36.72,1.06.72a5,5,0,0,0,1-.1v.68a4.88,4.88,0,0,1-1.09.1c-1.23,0-1.84-.58-1.84-1.74s.53-1.66,1.59-1.66m-.74,1.41h1.45v0A.63.63,0,0,0,9.47,17c-.45,0-.7.25-.74.74"/><path class="cls-2" d="M11.44,15.75h.64l.12.55h.86V17H12.3v1.56c0,.32.13.48.41.48h.35v.68h-.77c-.56,0-.85-.31-.85-.92Z"/><path class="cls-2" d="M17.75,19.47a3.84,3.84,0,0,1-1.36.23,2.17,2.17,0,0,1-2.48-2.41c0-1.52.83-2.28,2.48-2.28a3.84,3.84,0,0,1,1.36.22V16a3.27,3.27,0,0,0-1.29-.26c-1.11,0-1.66.51-1.66,1.54A1.46,1.46,0,0,0,16.46,19a3.26,3.26,0,0,0,1.29-.25Z"/><path class="cls-2" d="M18.6,19.7V16.3h.66l.11.44a1.35,1.35,0,0,1,.94-.44V17a1.16,1.16,0,0,0-.85.4V19.7Z"/><path class="cls-2" d="M22.33,16.3a1.38,1.38,0,0,1,1.54,1.58,3,3,0,0,1,0,.42H21.6q0,.72,1,.72a5,5,0,0,0,1-.1v.68a4.88,4.88,0,0,1-1.09.1c-1.23,0-1.84-.58-1.84-1.74s.53-1.66,1.59-1.66m-.73,1.41H23v0a.63.63,0,0,0-.71-.71c-.45,0-.7.25-.73.74"/><path class="cls-2" d="M27.46,19.49a5.8,5.8,0,0,1-1.52.21c-1.09,0-1.64-.59-1.64-1.77a1.43,1.43,0,0,1,1.61-1.63,1.86,1.86,0,0,1,.7.16V15.07h.85Zm-.85-2.3a1.17,1.17,0,0,0-.67-.18c-.53,0-.8.3-.8.9S25.42,19,26,19a2.2,2.2,0,0,0,.64-.09Z"/><path class="cls-2" d="M29.17,15.75h-.85v-.68h.85Zm0,3.95h-.85V16.3h.85Z"/><path class="cls-2" d="M30,15.75h.64l.13.55h.85V17h-.76v1.56c0,.32.14.48.41.48h.35v.68h-.76c-.57,0-.86-.31-.86-.92Z"/><path class="cls-3" d="M35.23,12.74v.13h0v0a.08.08,0,0,1,0,0l0,.06h0l-.12.16-.15.2c-.12.17-2.15,2.82-2.15,2.82h0a.36.36,0,0,1-.22.09.29.29,0,0,1-.25-.13l-.1-.13L32.07,16l0-.08,0,0-1-1.42-.1-.13a.37.37,0,0,1-.1-.25.36.36,0,0,1,.37-.36h.14l.05,0,0,0h0l.29.23.31.26.3.24,0,0a.19.19,0,0,0,.31,0l.16-.18,0,0,1.6-1.81h0l0,0h0v0h0a.45.45,0,0,1,.3-.12.44.44,0,0,1,.44.44"/><polygon class="cls-3" points="3.24 21.93 2.95 21.21 2.74 21.21 3.14 22.15 3.32 22.15 3.74 21.21 3.53 21.21 3.24 21.93"/><polygon class="cls-3" points="4.74 21.21 4.34 22.15 4.52 22.15 4.83 21.39 4.98 21.74 4.79 21.74 4.73 21.89 5.04 21.89 5.15 22.15 5.34 22.15 4.93 21.21 4.74 21.21"/><polygon class="cls-3" points="6.41 21.66 6.15 21.21 5.96 21.21 6.32 21.82 6.32 22.15 6.5 22.15 6.5 21.82 6.84 21.21 6.66 21.21 6.41 21.66"/><polygon class="cls-3" points="8.57 21.36 8.84 21.36 8.84 22.15 9.02 22.15 9.02 21.36 9.29 21.36 9.29 21.21 8.57 21.21 8.57 21.36"/><rect class="cls-3" x="9.98" y="21.21" width="0.17" height="0.94"/><polygon class="cls-3" points="11.11 21.75 11.56 21.75 11.56 21.59 11.11 21.59 11.11 21.36 11.58 21.36 11.58 21.21 10.94 21.21 10.94 22.15 11.59 22.15 11.59 22 11.11 22 11.11 21.75"/><polygon class="cls-3" points="11.25 21.04 11.3 21.13 11.42 21.13 11.3 20.96 11.2 20.96 11.09 21.13 11.21 21.13 11.25 21.04"/><path class="cls-3" d="M13,21.78c0,.15-.08.22-.23.22s-.23-.07-.23-.22v-.57h-.18v.57c0,.25.14.38.41.38s.4-.13.4-.38v-.57H13Z"/><path class="cls-3" d="M15.2,21.21h-.37v.94h.37c.31,0,.46-.17.46-.5S15.51,21.21,15.2,21.21Zm0,.79H15v-.64h.2a.26.26,0,0,1,.29.29C15.49,21.88,15.39,22,15.2,22Z"/><polygon class="cls-3" points="16.91 21.13 16.81 20.96 16.6 20.96 16.76 21.13 16.91 21.13"/><path class="cls-3" d="M17,21.78c0,.15-.08.22-.23.22s-.23-.07-.23-.22v-.57H16.4v.57c0,.25.14.38.41.38s.4-.13.4-.38v-.57H17Z"/><polygon class="cls-3" points="18.67 21.89 18.17 21.21 18 21.21 18 22.15 18.17 22.15 18.17 21.45 18.66 22.15 18.84 22.15 18.84 21.21 18.67 21.21 18.67 21.89"/><path class="cls-3" d="M19.59,21.66a.44.44,0,0,0,.5.5.79.79,0,0,0,.29-.05v-.4H20.2V22h-.11c-.21,0-.32-.11-.32-.34s.12-.31.34-.31a.81.81,0,0,1,.27,0v-.15a.66.66,0,0,0-.28-.05C19.76,21.2,19.59,21.35,19.59,21.66Z"/><polygon class="cls-3" points="22.22 21.36 22.48 21.36 22.48 22.15 22.66 22.15 22.66 21.36 22.93 21.36 22.93 21.21 22.22 21.21 22.22 21.36"/><rect class="cls-3" x="23.62" y="21.21" width="0.17" height="0.94"/><polygon class="cls-3" points="24.89 21.04 24.94 21.13 25.06 21.13 24.95 20.96 24.85 20.96 24.73 21.13 24.85 21.13 24.89 21.04"/><polygon class="cls-3" points="24.75 21.75 25.2 21.75 25.2 21.59 24.75 21.59 24.75 21.36 25.23 21.36 25.23 21.21 24.58 21.21 24.58 22.15 25.23 22.15 25.23 22 24.75 22 24.75 21.75"/><polygon class="cls-3" points="26.66 21.89 26.16 21.21 25.99 21.21 25.99 22.15 26.15 22.15 26.15 21.45 26.65 22.15 26.82 22.15 26.82 21.21 26.66 21.21 26.66 21.89"/><polygon class="cls-3" points="28.97 21.21 28.8 21.21 28.8 22.15 29.34 22.15 29.34 22 28.97 22 28.97 21.21"/><path class="cls-3" d="M30.56,21.29l.09-.24h-.17l-.06.17-.18,0a.42.42,0,0,0-.47.48c0,.32.17.48.47.48a.42.42,0,0,0,.47-.48A.47.47,0,0,0,30.56,21.29Zm-.32.71c-.19,0-.29-.11-.29-.33s.1-.32.29-.32.29.11.29.32S30.43,22,30.24,22Z"/><rect class="cls-3" x="31.46" y="21.21" width="0.17" height="0.94"/><rect class="cls-3" x="24.86" y="22.31" width="0.17" height="0.16"/><rect class="cls-3" x="30.17" y="22.31" width="0.17" height="0.16"/></g></g></svg>