<svg xmlns="http://www.w3.org/2000/svg" width="40" height="40" viewBox="0 0 40 40">
    <path fill="#EC1C2B" d="M35.52 18.054c-.176 0-.342-.006-.517-.006h-3.487V4.254c.011-.823-1.037-.92-1.667-.92h-.34c-.63 0-1.674.097-1.664.92 0 .174-.005.342-.005.517v13.277H24.99V4.254c.012-.823-1.038-.92-1.666-.92h-.34c-.632 0-1.674.097-1.665.92 0 .174-.006.342-.006.517v13.277h-2.85V4.254c.01-.823-1.038-.92-1.667-.92h-.34c-.632 0-1.674.097-1.666.92 0 .174-.005.342-.005.517v13.277h-2.85V4.254c.01-.823-1.038-.92-1.668-.92h-.34c-.63 0-1.674.097-1.663.92 0 .174-.006.342-.006.517v13.277h-3.49c-.018 0-.037 0-.085.006h-.435c-.826-.01-.914 1.032-.914 1.666v.34c0 .063.002.113.008.185.077 1.491.64 1.481.906 1.481.141-.005.284-.005.45 0h3.56v13.281c0 .017 0 .04.006.085v.434c-.011.826 1.033.915 1.663.915h.34c.063 0 .114-.002.186-.009 1.492-.077 1.481-.64 1.481-.906-.003-.14-.003-.284 0-.45V21.727h2.851v13.28c0 .017 0 .04.005.085v.434c-.008.826 1.034.915 1.666.915h.34c.061 0 .112-.002.186-.009 1.491-.077 1.48-.64 1.48-.906-.005-.14-.005-.284 0-.45V21.727h2.85v13.28c0 .017 0 .04.007.085v.434c-.009.826 1.033.915 1.665.915h.34c.06 0 .113-.002.185-.009 1.493-.077 1.481-.64 1.481-.906-.004-.14-.004-.284 0-.45V21.727h2.851v13.28c0 .017 0 .04.005.085v.434c-.01.826 1.033.915 1.665.915h.34c.062 0 .112-.002.186-.009 1.491-.077 1.48-.64 1.48-.906-.004-.14-.004-.284 0-.45V21.727h4.003c.824.01.92-1.039.92-1.666v-.341c0-.634-.096-1.676-.92-1.666"/>
</svg>
