<svg xmlns="http://www.w3.org/2000/svg" viewBox="0 0 36 36"><defs><style>.cls-1{fill:#f1f2f2;}.cls-2{fill:#184679;}.cls-3{fill:#f48020;}</style></defs><g id="Layer_2" data-name="Layer 2"><g id="Layer_1-2" data-name="Layer 1"><rect class="cls-1" width="36" height="36"/><path class="cls-2" d="M6,16c0,.22-.46,3.21-.5,3.49h1L6.91,16Z"/><path class="cls-2" d="M13.8,16c0,.22-.46,3.21-.5,3.49h2.25c0-.16.08-.56.11-.75H14.29l.1-.65h1.23l.1-.7H14.49l.09-.63H15.9c0-.16.08-.56.11-.76Z"/><path class="cls-2" d="M3.12,18s.8-1.84.86-2H5.19c0,.24-.16,3.23-.16,3.48H4.16l.15-2.44-1,2.44H2.58l-.31-2.44c0,.11-.35,1.74-.53,2.44H.88c.09-.31.75-3.31.8-3.48H2.84Z"/><path class="cls-2" d="M11.29,18.09l.55-1.29L12,18.09Zm.82.72s.06.57.09.71h.92c-.06-.29-.56-3.28-.59-3.49H11.36c-.06.15-1.39,3.15-1.55,3.49h.93l.29-.71Z"/><path class="cls-2" d="M8.25,16.69h.21a.5.5,0,0,1,.41.13.43.43,0,0,1,.08.35s0,.27-.21.35a.62.62,0,0,1-.32.08H8l.82,1.92h.93L9,18.05a.88.88,0,0,0,.85-.87,2,2,0,0,0,0-.23.84.84,0,0,0-.2-.59A1.19,1.19,0,0,0,8.78,16H7.47L7,19.52h.87l.41-2.83"/><path class="cls-3" d="M35.12,11.58c-.56,2.32-2.57,3.58-3.75,4.26l-.05-.07A7.12,7.12,0,0,0,34,12.12Z"/><path class="cls-2" d="M24.72,17.41s-.25-.13-.25-.13h0c-.08,0-.27-.15-.27-.34a.29.29,0,0,1,.1-.22.4.4,0,0,1,.33-.07,1.18,1.18,0,0,1,.56.31l.36-.68a1.58,1.58,0,0,0-.81-.36,1.48,1.48,0,0,0-1.13.24,1.16,1.16,0,0,0-.43.79.92.92,0,0,0,0,.16,1,1,0,0,0,.11.47c.52,0,1.07,0,1.62-.08l-.17-.08"/><path class="cls-2" d="M28.61,16c0,.14-.09.6-.12.82A14.82,14.82,0,0,0,30.74,16Z"/><path class="cls-2" d="M29,16.9h0l-.29.1H28.6l-.12,0-.07,0-.42.12-.09,0-.12,0-.09,0-.13,0-.11,0-.21.05-.11,0h-.06c-.39.09-.81.17-1.25.25h0l-.24,0h-.07l-.25,0h0l-1.51.17h0l-.24,0h0l-.25,0h0l-.26,0h-.29c-.44,0-.9,0-1.37,0h-.42c-.38,0-.77,0-1.17,0h0c-.6,0-1.23-.08-1.87-.15l.74-.7a10.45,10.45,0,0,0,1,.24c-.11-.68-.21-1.27-.23-1.36H18.15c-.07.15-1.4,3.15-1.56,3.49h.94l.36-.87h1s.09.73.11.87h.92c0-.12-.11-.64-.21-1.25.65,0,1.31,0,1.93,0a.35.35,0,0,1,0,.17v.07a.32.32,0,0,1-.12.18.6.6,0,0,1-.43.05,1.5,1.5,0,0,1-.73-.46l-.45.73a2.07,2.07,0,0,0,1.13.57,1.51,1.51,0,0,0,1.11-.25,1.19,1.19,0,0,0,.47-.81.9.9,0,0,0,0-.28c.66,0,1.2-.07,1.55-.1a.38.38,0,0,1,.18.3s0,0,0,.07a.25.25,0,0,1-.12.18.59.59,0,0,1-.43.05,1.43,1.43,0,0,1-.72-.46c-.12.19-.37.6-.46.73a2.1,2.1,0,0,0,1.13.57,1.51,1.51,0,0,0,1.11-.25,1.2,1.2,0,0,0,.48-.81,1.22,1.22,0,0,0,0-.51l.42-.06c-.1.73-.2,1.41-.22,1.54H27.8c0-.16.08-.56.11-.76H26.55l.09-.64h1.23l.1-.64.25-.08s.42-.13,1-.33c-.08.55-.32,2.22-.35,2.45h1l.38-2.62h.7c0-.15.09-.63.12-.84a12,12,0,0,1-2,.84"/><path class="cls-2" d="M22.3,17.58a1.46,1.46,0,0,0-.3-.17l-.25-.13h0c-.08,0-.27-.15-.27-.34a.26.26,0,0,1,.1-.22.4.4,0,0,1,.33-.07,1.27,1.27,0,0,1,.56.31l.36-.68a1.58,1.58,0,0,0-.82-.36,1.46,1.46,0,0,0-1.12.24,1.13,1.13,0,0,0-.44.79v.16a.88.88,0,0,0,.08.41h.06c.43,0,1,.06,1.72.07"/><path class="cls-2" d="M26.83,16.79h1.33c0-.16.08-.56.11-.75H26.05c0,.08-.1.68-.19,1.35.3,0,.61-.08.9-.14Z"/><path class="cls-2" d="M3.61,21.12A.51.51,0,0,0,3.26,21a.59.59,0,0,0-.23,0,.39.39,0,0,0-.16.15h0V21h-.2v1.26h.2v-.65A.54.54,0,0,1,3,21.29a.35.35,0,0,1,.28-.11.29.29,0,0,1,.22.08.35.35,0,0,1,.06.23v.8h.21v-.82A.51.51,0,0,0,3.61,21.12Z"/><path class="cls-2" d="M6.31,21.12A.48.48,0,0,0,6,21a.6.6,0,0,0-.24,0,.39.39,0,0,0-.16.15h0V21H5.36v1.26h.21v-.65a.54.54,0,0,1,.09-.35.33.33,0,0,1,.28-.11.27.27,0,0,1,.21.08.3.3,0,0,1,.07.23v.8h.2v-.82A.51.51,0,0,0,6.31,21.12Z"/><path class="cls-2" d="M18.4,21.12a.51.51,0,0,0-.35-.11.59.59,0,0,0-.23,0,.39.39,0,0,0-.16.15h0V21h-.21v1.26h.21v-.65a.62.62,0,0,1,.08-.35.36.36,0,0,1,.28-.11.29.29,0,0,1,.22.08.35.35,0,0,1,.07.23v.8h.2v-.82A.51.51,0,0,0,18.4,21.12Z"/><path class="cls-2" d="M7.3,21.19a.83.83,0,0,1,.27.06h0l.06,0v-.19a.53.53,0,0,0-.15,0L7.3,21a.59.59,0,0,0-.44.17.74.74,0,0,0-.15.49.69.69,0,0,0,.15.48.54.54,0,0,0,.43.16.89.89,0,0,0,.34-.07v-.19a.91.91,0,0,1-.35.09A.33.33,0,0,1,7,22a.58.58,0,0,1-.09-.35A.6.6,0,0,1,7,21.31.36.36,0,0,1,7.3,21.19Z"/><path class="cls-2" d="M1.14,22.29H.93V20.62h.93v.18H1.14v.6h.68v.18H1.14Z"/><path class="cls-2" d="M2.07,20.69a.15.15,0,0,1,0-.1.14.14,0,0,1,.09,0,.11.11,0,0,1,.08,0,.12.12,0,0,1,0,.1.11.11,0,0,1,0,.1.12.12,0,0,1-.08,0,.15.15,0,0,1-.09,0A.13.13,0,0,1,2.07,20.69Zm.22,1.6H2.08V21h.21Z"/><path class="cls-2" d="M8.41,22.31A.55.55,0,0,1,8,22.14a.64.64,0,0,1-.16-.47A.73.73,0,0,1,8,21.19a.54.54,0,0,1,.78,0,.63.63,0,0,1,.14.42v.12H8a.47.47,0,0,0,.11.33.4.4,0,0,0,.29.11l.19,0a.74.74,0,0,0,.21-.07v.18l-.19.07Zm-.05-1.13a.29.29,0,0,0-.23.09.55.55,0,0,0-.11.27h.65a.41.41,0,0,0-.09-.27A.27.27,0,0,0,8.36,21.18Z"/><path class="cls-2" d="M4.1,21.32a1,1,0,0,1,.23-.1.78.78,0,0,1,.21,0,.24.24,0,0,1,.2.07.29.29,0,0,1,.06.21v.07H4.59c-.4,0-.6.15-.6.4a.37.37,0,0,0,.1.28.44.44,0,0,0,.29.09.57.57,0,0,0,.24,0,.41.41,0,0,0,.18-.13v.15H5v-.86a.4.4,0,0,0-.11-.32.51.51,0,0,0-.34-.1,1,1,0,0,0-.24,0,1,1,0,0,0-.21.08v.19m.6.73a.36.36,0,0,1-.27.1.24.24,0,0,1-.17-.06.18.18,0,0,1-.06-.15.21.21,0,0,1,.1-.19.71.71,0,0,1,.31-.07H4.8v.12A.33.33,0,0,1,4.7,22.05Z"/><path class="cls-2" d="M16.19,21.32a.84.84,0,0,1,.23-.1.71.71,0,0,1,.21,0,.24.24,0,0,1,.2.07.29.29,0,0,1,.06.21v.07h-.21c-.41,0-.61.15-.61.4a.38.38,0,0,0,.11.28.42.42,0,0,0,.29.09.53.53,0,0,0,.23,0,.43.43,0,0,0,.19-.13v.15h.2v-.86a.44.44,0,0,0-.11-.32.55.55,0,0,0-.34-.1,1,1,0,0,0-.24,0,1,1,0,0,0-.21.08v.19m.6.73a.36.36,0,0,1-.27.1.22.22,0,0,1-.17-.06.18.18,0,0,1-.06-.15.21.21,0,0,1,.1-.19.71.71,0,0,1,.31-.07h.19v.12A.36.36,0,0,1,16.79,22.05Z"/><path class="cls-2" d="M19.64,21l-.25.72a1.25,1.25,0,0,0-.06.18l0,.11-.36-.92,0-.09h-.22l.51,1.27-.07.16a.36.36,0,0,1-.11.17.25.25,0,0,1-.17.06l-.13,0v.17l.17,0a.45.45,0,0,0,.27-.1.72.72,0,0,0,.18-.29L19.87,21Z"/><path class="cls-2" d="M12.3,21.66a.73.73,0,0,1-.16.48.63.63,0,0,1-.74.09.5.5,0,0,1-.2-.23.87.87,0,0,1,.08-.83.56.56,0,0,1,.43-.17.55.55,0,0,1,.43.18A.71.71,0,0,1,12.3,21.66Zm-1,0a.62.62,0,0,0,.09.36A.39.39,0,0,0,12,22a.62.62,0,0,0,.09-.36A.6.6,0,0,0,12,21.3a.35.35,0,0,0-.28-.12C11.46,21.18,11.34,21.34,11.34,21.66Z"/><path class="cls-2" d="M14.3,21.11A.47.47,0,0,0,14,21a.53.53,0,0,0-.24.06.46.46,0,0,0-.16.15h0a.38.38,0,0,0-.39-.21.54.54,0,0,0-.22.05.36.36,0,0,0-.15.15h0V21h-.21v1.26h.21v-.66a.55.55,0,0,1,.08-.35.29.29,0,0,1,.25-.1.24.24,0,0,1,.2.07.37.37,0,0,1,.06.23v.81h.21v-.7a.52.52,0,0,1,.08-.31.31.31,0,0,1,.26-.1c.17,0,.26.1.26.3v.81h.2v-.82A.52.52,0,0,0,14.3,21.11Z"/><path class="cls-2" d="M10.49,20.78a.52.52,0,0,0-.42.18.74.74,0,0,0-.16.49.68.68,0,0,0,.16.5.52.52,0,0,0,.42.18,1.21,1.21,0,0,0,.4-.07v.19l-.2.05h-.23a.74.74,0,0,1-.57-.22.94.94,0,0,1-.2-.64.93.93,0,0,1,.1-.45.63.63,0,0,1,.28-.3.83.83,0,0,1,.43-.11,1.11,1.11,0,0,1,.46.1l-.09.18A.92.92,0,0,0,10.49,20.78Z"/><path class="cls-2" d="M15.73,21.18a.46.46,0,0,0-.38-.17.51.51,0,0,0-.22,0,.4.4,0,0,0-.17.15V21h-.21v1.82H15v-.72a.46.46,0,0,0,.39.18.47.47,0,0,0,.38-.17.73.73,0,0,0,.14-.49A.72.72,0,0,0,15.73,21.18Zm-.16.84a.28.28,0,0,1-.25.13A.35.35,0,0,1,15,22a.72.72,0,0,1-.08-.38v0a.57.57,0,0,1,.08-.33.33.33,0,0,1,.27-.1.31.31,0,0,1,.26.12.58.58,0,0,1,.09.35A.62.62,0,0,1,15.57,22Z"/></g></g></svg>