<svg xmlns="http://www.w3.org/2000/svg" viewBox="0 0 31.18 28.35"><defs><style>.cls-1{fill:#008375;}.cls-2{fill:#d50037;}</style></defs><g id="Layer_2" data-name="Layer 2"><g id="레이어_1" data-name="레이어 1"><path class="cls-1" d="M20.4,16.8A4.78,4.78,0,0,0,20,15.56a6.11,6.11,0,0,0-2.45-2.84,5.51,5.51,0,0,0-5.68,0,5.05,5.05,0,0,0-1.88,2,5.21,5.21,0,0,0-.35.88,6.14,6.14,0,0,0,.39,4.79,2.36,2.36,0,0,0,1.14,1,1.66,1.66,0,0,0,1.49-.11,1.58,1.58,0,0,0,.56-1.66,4.45,4.45,0,0,1,.05-2.32,1.8,1.8,0,0,1,.41-.66,1.56,1.56,0,0,1,.4-.27,1.59,1.59,0,0,1,1-.16,1.87,1.87,0,0,1,1.32,1.07A4.56,4.56,0,0,1,16.77,19a26.09,26.09,0,0,1-1.14,7.69l-.21.76c-.05.19-.16.44,0,.63a.52.52,0,0,0,.23.18.86.86,0,0,0,.94-.34,13.65,13.65,0,0,0,3.13-5.48,16.64,16.64,0,0,0,.6-2.28,9.68,9.68,0,0,0,.11-3.4"/><path class="cls-1" d="M31.18,4.94a.65.65,0,0,0-.71-.63,3.35,3.35,0,0,0-1.06.33,42.7,42.7,0,0,1-21.06,2C7.16,6.46,6,6.22,4.75,6,4,5.92,3.26,5.74,2.5,5.69a2.72,2.72,0,0,0-2,.38A2.07,2.07,0,0,0,.28,8.53,5.56,5.56,0,0,0,2.43,10.6a5.16,5.16,0,0,0,2.8,1q4-.26,8-.77c4.51-.59,9.25-1.14,13.5-2.9a16.79,16.79,0,0,0,3.94-2.21c.22-.16.53-.43.53-.74"/><path class="cls-2" d="M12.2,2.67a2.6,2.6,0,1,0,5.2,0A1.56,1.56,0,0,0,17.26,2c-.22-.47-.47-.7-.45-1.27,0-.76-.94-.77-1.47-.77a3.85,3.85,0,0,0-1.71.34,2.66,2.66,0,0,0-1,.92,2.58,2.58,0,0,0-.41,1.35v.06"/></g></g></svg>