<svg xmlns="http://www.w3.org/2000/svg" width="40" height="40" viewBox="0 0 40 40">
    <defs>
        <radialGradient id="heqcs131ta" cx="59.235%" cy="36.425%" r="47.53%" fx="59.235%" fy="36.425%">
            <stop offset="0%" stop-color="#FFF"/>
            <stop offset="100%" stop-color="#CF9C51"/>
        </radialGradient>
        <radialGradient id="y77n0ngv6b" cx="56.142%" cy="35.388%" r="105.018%" fx="56.142%" fy="35.388%" gradientTransform="matrix(1 0 0 .99707 0 .001)">
            <stop offset="0%" stop-color="#00C0F3"/>
            <stop offset="21.91%" stop-color="#0097D6"/>
            <stop offset="22.02%" stop-color="#0097D6"/>
            <stop offset="28.35%" stop-color="#0084C8"/>
            <stop offset="34.87%" stop-color="#0076BE"/>
            <stop offset="41.69%" stop-color="#006DB8"/>
            <stop offset="48.93%" stop-color="#0068B4"/>
            <stop offset="57.3%" stop-color="#0066B3"/>
        </radialGradient>
    </defs>
    <g fill="none">
        <path fill="url(#heqcs131ta)" d="M15.84.308C6.853.7-.18 8.318.21 17.402c.392 8.987 8.108 16.02 17.095 15.63 9.084-.392 16.02-8.108 15.629-17.095C32.543 6.853 24.924-.083 15.84.308z" transform="translate(3.333 3.333)"/>
        <path fill="url(#y77n0ngv6b)" d="M15.84.015C6.658.504-.375 8.22.016 17.402c.39 9.182 8.205 16.215 17.289 15.825 9.182-.391 16.215-8.206 15.824-17.29C32.74 6.755 25.022-.375 15.84.015zm1.953 16.118c2.93 2.735 4.591 4.2 4.591 4.2 5.177 4.298 3.42 8.303 1.465 9.67-1.465 1.075-3.223 1.563-5.372 1.66-.195 0-.586-.097-.586-.39 0-.39.488-.488.488-.488 4.884-.977 3.517-4.2 1.759-5.861-.684-.684-7.522-6.545-7.522-6.545C5.974 12.714 6.56 8.416 6.56 8.416c.293-5.373 5.08-6.74 8.596-6.447.39 0 .684.293.586.684-.098.39-.586.39-.586.39-1.172.098-2.149.196-2.93.684-2.833 1.954-2.052 5.275 1.855 8.89.489.487.977.976 1.563 1.464-.195 0 .586.586 2.15 2.052zM15.547 30.1c0 .488-1.27.781-2.735.586-1.856-.195-4.005-.782-5.959-2.442-1.66-1.465-2.735-3.517-3.321-5.373-.586-1.855-.781-4.102.098-3.907.293.098.781 1.27 1.27 2.15.488.878.976 1.367 1.367 1.757.195.098.781-1.27 1.758-2.05.489-.392 1.075-.587 1.172.683.098 1.563-.195 3.516.293 3.516.391 0 1.466-.293 3.615-.488.781-.098 1.27.098.488 1.172-.39.586-.88 1.27-2.149 2.15 1.856 1.757 4.103 1.562 4.103 2.246zm1.465-16.704c-.098-.488-.196-1.172-.098-2.05.196-1.857.684-2.638 1.27-4.103.781-1.954-.977-3.028-.684-3.712.391-.977 1.758.293 3.126.293 1.27.098 1.954 0 2.93.098 1.27.195 2.833.586 3.517 1.465.586.781-.293 1.66-1.465 1.074-.88-.39-1.954-.195-1.27.684.781.88 1.074.88 1.856 1.074 2.149.587 2.149 2.54.684 3.615-1.661 1.172-3.322.683-3.908-1.66-.293-1.173-1.172-1.76-1.953-1.466-.88.488-.293 2.051.293 3.419 1.27 3.223-1.856 3.125-2.247 3.125-1.66-.39-2.051-1.856-2.051-1.856z" transform="translate(3.333 3.333)"/>
    </g>
</svg>
