<svg xmlns="http://www.w3.org/2000/svg" width="40" height="40" viewBox="0 0 40 40">
    <g fill="none" fill-rule="evenodd">
        <path fill="#1463A0" d="M.706 19.824c-.56-1.323-.797-2.698-.674-4.13.211-2.467 1.362-4.528 2.896-6.424 1.536-1.9 3.45-3.371 5.536-4.642 2.12-1.29 4.284-2.5 6.613-3.397C16.507.68 17.957.193 19.5.027c.434-.047.865-.032 1.294.037 1.116.18 1.679 1.156 1.26 2.189-.286.708-.833 1.206-1.432 1.655-1.15.862-2.485 1.374-3.796 1.93-2.77 1.176-5.521 2.39-8.081 3.974-2.486 1.537-4.728 3.343-6.368 5.77C1.43 16.987.993 17.85.706 19.825" transform="translate(9.167 3.333)"/>
        <path fill="#F18A2B" d="M1.962 23.764c-.886-2.268-.785-4.48.38-6.625 1.152-2.123 2.829-3.783 4.825-5.15 1.906-1.306 3.895-2.475 6.03-3.396 1.036-.447 2.106-.788 3.23-.946.339-.047.678-.05 1.016.034.7.174 1.08.755.953 1.455-.1.548-.426.963-.81 1.338-.817.8-1.804 1.362-2.835 1.852-1.971.937-3.951 1.856-5.818 2.988-2.167 1.313-4.07 2.904-5.493 5-.357.525-.652 1.082-.92 1.656-.269.573-.443 1.17-.558 1.794" transform="translate(9.167 3.333)"/>
        <path fill="#1663A1" d="M3.042 26.995c-.81-1.905-.68-3.763.363-5.54 1.133-1.93 2.825-3.333 4.683-4.546 1.333-.87 2.752-1.6 4.25-2.167.402-.152.822-.259 1.263-.257.948.002 1.514.756 1.238 1.647-.14.45-.45.779-.793 1.081-1.19 1.053-2.612 1.755-3.997 2.514-2.133 1.168-4.101 2.542-5.64 4.436-.68.834-1.213 1.739-1.367 2.832" transform="translate(9.167 3.333)"/>
        <path fill="#F18A2C" d="M3.73 29.318c-.421-1.457-.181-2.796.626-4.012 1.329-2.001 3.204-3.365 5.439-4.274.168-.068.35-.108.528-.146.496-.106.954-.051 1.259.397.302.445.23.913-.022 1.35-.402.696-1.046 1.138-1.746 1.51-1.374.73-2.719 1.505-3.904 2.516-.749.64-1.391 1.362-1.811 2.254-.073.154-.168.287-.368.405" transform="translate(9.167 3.333)"/>
        <path fill="#1863A1" d="M4.95 32.164c-.785-.772-.975-1.958-.514-2.93.496-1.043 1.296-1.826 2.217-2.508.461-.342.933-.67 1.479-.87.376-.137.773-.237 1.098.105.34.359.244.757.055 1.149-.21.437-.598.706-.978.982-.643.467-1.36.827-1.974 1.334-.853.705-1.383 1.565-1.383 2.738" transform="translate(9.167 3.333)"/>
        <path fill="#F18C2F" d="M7.767 32.548c-.007.648-.33.876-.97.696-.464-.13-.859-.387-1.235-.664-.377-.278-.382-.677-.263-1.087.267-.915.39-.963 1.199-.479.303.181.6.37.861.608.278.252.412.559.408.926" transform="translate(9.167 3.333)"/>
    </g>
</svg>
